<svg xmlns="http://www.w3.org/2000/svg" xmlns:xlink="http://www.w3.org/1999/xlink" width="614" height="568" viewBox="0 0 614 568">
  <defs>
    <linearGradient id="linear-gradient" y1="0.5" x2="1" y2="0.5" gradientUnits="objectBoundingBox">
      <stop offset="0" stop-color="#4686c6"/>
      <stop offset="0.128" stop-color="#4381c0" stop-opacity="0.988"/>
      <stop offset="0.305" stop-color="#3d74b1"/>
      <stop offset="0.511" stop-color="#335f98"/>
      <stop offset="0.739" stop-color="#264276"/>
      <stop offset="0.975" stop-color="#151f4c" stop-opacity="0.741"/>
      <stop offset="1" stop-color="#151f4c" stop-opacity="0.702"/>
    </linearGradient>
    <linearGradient id="linear-gradient-2" x1="-2.523" y1="0.294" x2="-2.881" y2="0.856" gradientUnits="objectBoundingBox">
      <stop offset="0" stop-color="#42b6e8"/>
      <stop offset="0.106" stop-color="#0090ff"/>
      <stop offset="0.22" stop-color="#2c87a0"/>
      <stop offset="0.338" stop-color="#235f86"/>
      <stop offset="0.459" stop-color="#1b3e71"/>
      <stop offset="0.582" stop-color="#162560"/>
      <stop offset="0.711" stop-color="#121355"/>
      <stop offset="0.846" stop-color="#0f084e"/>
      <stop offset="1" stop-color="#0f054c"/>
    </linearGradient>
    <clipPath id="clip-Artboard_15">
      <rect width="614" height="568"/>
    </clipPath>
  </defs>
  <g id="Artboard_15" data-name="Artboard – 15" clip-path="url(#clip-Artboard_15)">
    <g id="Group_4217" data-name="Group 4217">
      <g id="Group_4156" data-name="Group 4156" transform="translate(-89.48 -40.088)">
        <g id="Group_550" data-name="Group 550" transform="translate(95.35 40.061)">
          <g id="Group_81" data-name="Group 81" transform="translate(215.005 155.887)">
            <path id="Path_251" data-name="Path 251" d="M697.7,308.9a13.635,13.635,0,1,0,13.758-13.512A13.636,13.636,0,0,0,697.7,308.9Z" transform="translate(-697.701 -295.388)" fill="#00d5ff" opacity="0.4"/>
            <path id="Path_252" data-name="Path 252" d="M700.391,303.942a5.918,5.918,0,1,0,5.97-5.864A5.918,5.918,0,0,0,700.391,303.942Z" transform="translate(-692.674 -290.361)" fill="#00d5ff"/>
          </g>
          <g id="Group_832" data-name="Group 832" transform="translate(17.491 317.096)">
            <path id="Path_251-2" data-name="Path 251" d="M697.7,311.468a16.227,16.227,0,1,0,16.373-16.08A16.228,16.228,0,0,0,697.7,311.468Z" transform="translate(-697.701 -295.388)" fill="#00d5ff" opacity="0.4"/>
            <path id="Path_252-2" data-name="Path 252" d="M700.391,305.056a7.043,7.043,0,1,0,7.1-6.978A7.042,7.042,0,0,0,700.391,305.056Z" transform="translate(-691.207 -288.894)" fill="#00d5ff"/>
          </g>
          <g id="Group_83" data-name="Group 83" transform="translate(349.076 0)">
            <path id="Path_251-3" data-name="Path 251" d="M697.7,315.264a20.058,20.058,0,1,0,20.238-19.875A20.058,20.058,0,0,0,697.7,315.264Z" transform="translate(-697.701 -295.388)" fill="#00d5ff" opacity="0.4"/>
            <path id="Path_252-3" data-name="Path 252" d="M700.391,306.7a8.706,8.706,0,1,0,8.782-8.626A8.7,8.7,0,0,0,700.391,306.7Z" transform="translate(-689.039 -286.726)" fill="#00d5ff"/>
          </g>
          <g id="Group_84" data-name="Group 84" transform="translate(0.326 218.908)">
            <path id="Path_253" data-name="Path 253" d="M1002.131,518.555c-5.453,0-10.66-1.1-14.545-3.342L797.211,405.3c-3.817-2.2-5.92-5.271-5.92-8.636,0-4.038,3.023-8.1,8.291-11.141L1162.666,175.9c9.873-5.7,24.873-6.315,33.438-1.37L1386.479,284.44c3.817,2.2,5.92,5.271,5.92,8.636,0,4.04-3.021,8.1-8.291,11.143L1021.024,513.844A38.829,38.829,0,0,1,1002.131,518.555Zm179.428-346.563a38,38,0,0,0-18.483,4.613L799.993,386.233c-5.008,2.891-7.88,6.694-7.88,10.431,0,3.06,1.957,5.875,5.51,7.926L988,514.5c8.338,4.812,22.969,4.2,32.617-1.37L1383.7,303.508c5.008-2.893,7.88-6.7,7.88-10.433,0-3.06-1.956-5.875-5.51-7.926L1195.693,175.236C1191.921,173.06,1186.861,171.992,1181.559,171.992Z" transform="translate(-791.291 -171.184)" fill="#42c6e5"/>
          </g>
          <g id="Group_80" data-name="Group 80" transform="translate(0 178.134)">
            <path id="Path_247" data-name="Path 247" d="M1434.053,505.289l-190.767-110.17c-8.511-4.914-7.444-13.5,2.385-19.173l370.277-213.723c9.828-5.674,24.7-6.292,33.208-1.378l190.767,110.172c8.512,4.914,7.444,13.5-2.384,19.173L1467.261,503.911C1457.433,509.586,1442.565,510.2,1434.053,505.289Z" transform="translate(-1237.54 -157.528)" fill="url(#linear-gradient)"/>
          </g>
          <g id="Group_73" data-name="Group 73" transform="translate(37.464 51.776)">
            <g id="Group_72" data-name="Group 72" transform="translate(0 0.123)">
              <path id="Path_236" data-name="Path 236" d="M625.63,571.834a.424.424,0,0,1-.2-.8c8.43-4.622,15.9-14.915,18.595-25.615L678.4,408.755c4.224-16.788,17.5-28.374,27.257-28.662,4.993-.107,8.671,2.694,10.345,8l9.709,30.784a9.961,9.961,0,0,0,5.716,6.67c3.31,1.3,7.555.655,11.949-1.826l6.947-3.929c7.856-4.443,15.077-14.167,17.967-24.2,4.609-16,17.212-26.643,26.245-27.329a10.025,10.025,0,0,1,10.348,6.231l10.753,23.324a9.364,9.364,0,0,0,5.627,5.24c3.219,1.037,7.273.322,11.414-2.019l7.953-4.5c8.391-4.745,15.979-15.464,18.455-26.07l34.456-147.661c3.869-16.574,17.367-28.735,27.06-29.281,4.964-.3,8.707,2.37,10.518,7.459l52.478,147.5a9.766,9.766,0,0,0,5.7,6.226c3.286,1.223,7.479.556,11.8-1.884l26.841-15.178a.424.424,0,1,1,.418.737l-26.843,15.178c-4.541,2.568-8.984,3.258-12.511,1.941a10.584,10.584,0,0,1-6.2-6.735l-52.478-147.5c-1.7-4.775-5.058-7.135-9.671-6.9-9.4.53-22.5,12.417-26.282,28.628L859.915,370.671c-2.565,10.989-10.147,21.686-18.865,26.614l-7.952,4.5c-4.347,2.461-8.642,3.2-12.093,2.088a10.2,10.2,0,0,1-6.137-5.693l-10.751-23.322c-1.883-4.086-5.168-6.061-9.514-5.74-8.75.663-20.986,11.067-25.495,26.716-2.949,10.231-10.328,20.158-18.364,24.7L743.8,424.46c-4.619,2.613-9.121,3.281-12.678,1.876a10.775,10.775,0,0,1-6.213-7.2L715.2,388.35c-1.573-4.985-4.886-7.56-9.512-7.409-9.249.274-22.391,11.847-26.459,28.019L644.842,545.63c-2.744,10.915-10.383,21.425-19.008,26.153A.441.441,0,0,1,625.63,571.834Z" transform="translate(-625.206 -193.514)" fill="#42e8e0"/>
              <path id="Path_237" data-name="Path 237" d="M643.467,582.3a.424.424,0,0,1-.2-.8c8.43-4.622,15.9-14.915,18.593-25.615l34.385-136.67c4.224-16.788,17.5-28.374,27.256-28.662,5-.11,8.671,2.694,10.346,8l9.708,30.785a9.964,9.964,0,0,0,5.716,6.67c3.313,1.3,7.556.655,11.95-1.826l6.946-3.929c7.856-4.441,15.077-14.165,17.967-24.2,4.609-16,17.214-26.643,26.247-27.33a10,10,0,0,1,10.348,6.233l10.753,23.324a9.368,9.368,0,0,0,5.627,5.24c3.218,1.035,7.274.322,11.414-2.017l7.953-4.5c8.391-4.745,15.979-15.466,18.455-26.07l34.456-147.661c3.869-16.576,17.366-28.735,27.06-29.281,4.985-.3,8.705,2.37,10.517,7.459l52.48,147.5a9.764,9.764,0,0,0,5.7,6.226c3.286,1.223,7.479.559,11.8-1.884l27.076-15.309a.424.424,0,1,1,.418.737l-27.076,15.309c-4.541,2.568-8.987,3.256-12.512,1.941a10.579,10.579,0,0,1-6.2-6.735l-52.48-147.5c-1.7-4.773-5.019-7.14-9.671-6.9-9.394.528-22.5,12.417-26.28,28.628L877.751,381.137c-2.563,10.99-10.144,21.686-18.863,26.614l-7.952,4.5c-4.349,2.458-8.645,3.2-12.093,2.087a10.2,10.2,0,0,1-6.137-5.693L821.955,385.32c-1.884-4.084-5.171-6.058-9.514-5.74-8.75.663-20.987,11.067-25.5,26.716C784,416.528,776.616,426.454,768.581,431l-6.946,3.929c-4.621,2.612-9.121,3.281-12.679,1.876a10.779,10.779,0,0,1-6.213-7.2l-9.708-30.785c-1.573-4.985-4.878-7.556-9.512-7.409-9.25.274-22.39,11.847-26.459,28.019L662.679,556.1c-2.746,10.915-10.385,21.425-19.009,26.153A.438.438,0,0,1,643.467,582.3Z" transform="translate(-614.145 -187.023)" fill="#42e8e0"/>
              <path id="Path_238" data-name="Path 238" d="M840.218,212.2a.415.415,0,0,1-.214-.06l-29.137-17.1a.425.425,0,0,1-.151-.582.42.42,0,0,1,.58-.149l29.137,17.1a.425.425,0,0,1-.215.791Z" transform="translate(-510.198 -193.056)" fill="#00d5ff"/>
              <path id="Path_239" data-name="Path 239" d="M763.11,320.407a.43.43,0,0,1-.214-.058L733.416,303a.424.424,0,1,1,.431-.731l29.479,17.347a.424.424,0,0,1-.215.789Z" transform="translate(-558.23 -126.105)" fill="#00d5ff"/>
              <path id="Path_240" data-name="Path 240" d="M708.382,327.995a.43.43,0,0,1-.214-.058l-30.724-18a.424.424,0,0,1,.429-.731l30.724,18a.424.424,0,0,1-.215.789Z" transform="translate(-592.941 -121.804)" fill="#00d5ff"/>
              <path id="Path_241" data-name="Path 241" d="M625.63,571.834a.424.424,0,0,1-.2-.8c8.43-4.622,15.9-14.915,18.595-25.615L678.4,408.755c4.224-16.788,17.5-28.374,27.257-28.662,4.993-.107,8.671,2.694,10.345,8l9.709,30.784a9.961,9.961,0,0,0,5.716,6.67c3.31,1.3,7.555.655,11.949-1.826l6.947-3.929c7.856-4.443,15.077-14.167,17.967-24.2,4.609-16,17.212-26.643,26.245-27.329a10.025,10.025,0,0,1,10.348,6.231l10.753,23.324a9.364,9.364,0,0,0,5.627,5.24c3.219,1.037,7.273.322,11.414-2.019l7.953-4.5c8.391-4.745,15.979-15.464,18.455-26.07l34.456-147.661c3.869-16.574,17.367-28.735,27.06-29.281,4.964-.3,8.707,2.37,10.518,7.459l52.478,147.5a9.766,9.766,0,0,0,5.7,6.226c3.286,1.223,7.479.556,11.8-1.884l26.841-15.178a.424.424,0,1,1,.418.737l-26.843,15.178c-4.541,2.568-8.984,3.258-12.511,1.941a10.584,10.584,0,0,1-6.2-6.735l-52.478-147.5c-1.7-4.775-5.058-7.135-9.671-6.9-9.4.53-22.5,12.417-26.282,28.628L859.915,370.671c-2.565,10.989-10.147,21.686-18.865,26.614l-7.952,4.5c-4.347,2.461-8.642,3.2-12.093,2.088a10.2,10.2,0,0,1-6.137-5.693l-10.751-23.322c-1.883-4.086-5.168-6.061-9.514-5.74-8.75.663-20.986,11.067-25.495,26.716-2.949,10.231-10.328,20.158-18.364,24.7L743.8,424.46c-4.619,2.613-9.121,3.281-12.678,1.876a10.775,10.775,0,0,1-6.213-7.2L715.2,388.35c-1.573-4.985-4.886-7.56-9.512-7.409-9.249.274-22.391,11.847-26.459,28.019L644.842,545.63c-2.744,10.915-10.383,21.425-19.008,26.153A.441.441,0,0,1,625.63,571.834Z" transform="translate(-625.206 -193.514)" fill="#0bf"/>
              <path id="Path_242" data-name="Path 242" d="M643.467,582.3a.424.424,0,0,1-.2-.8c8.43-4.622,15.9-14.915,18.593-25.615l34.385-136.67c4.224-16.788,17.5-28.374,27.256-28.662,5-.11,8.671,2.694,10.346,8l9.708,30.785a9.964,9.964,0,0,0,5.716,6.67c3.313,1.3,7.556.655,11.95-1.826l6.946-3.929c7.856-4.441,15.077-14.165,17.967-24.2,4.609-16,17.214-26.643,26.247-27.33a10,10,0,0,1,10.348,6.233l10.753,23.324a9.368,9.368,0,0,0,5.627,5.24c3.218,1.035,7.274.322,11.414-2.017l7.953-4.5c8.391-4.745,15.979-15.466,18.455-26.07l34.456-147.661c3.869-16.576,17.366-28.735,27.06-29.281,4.985-.3,8.705,2.37,10.517,7.459l52.48,147.5a9.764,9.764,0,0,0,5.7,6.226c3.286,1.223,7.479.559,11.8-1.884l27.076-15.309a.424.424,0,1,1,.418.737l-27.076,15.309c-4.541,2.568-8.987,3.256-12.512,1.941a10.579,10.579,0,0,1-6.2-6.735l-52.48-147.5c-1.7-4.773-5.019-7.14-9.671-6.9-9.394.528-22.5,12.417-26.28,28.628L877.751,381.137c-2.563,10.99-10.144,21.686-18.863,26.614l-7.952,4.5c-4.349,2.458-8.645,3.2-12.093,2.087a10.2,10.2,0,0,1-6.137-5.693L821.955,385.32c-1.884-4.084-5.171-6.058-9.514-5.74-8.75.663-20.987,11.067-25.5,26.716C784,416.528,776.616,426.454,768.581,431l-6.946,3.929c-4.621,2.612-9.121,3.281-12.679,1.876a10.779,10.779,0,0,1-6.213-7.2l-9.708-30.785c-1.573-4.985-4.878-7.556-9.512-7.409-9.25.274-22.39,11.847-26.459,28.019L662.679,556.1c-2.746,10.915-10.385,21.425-19.009,26.153A.438.438,0,0,1,643.467,582.3Z" transform="translate(-614.145 -187.023)" fill="#00d5ff"/>
            </g>
            <path id="Path_244" data-name="Path 244" d="M1046.333,347.041l-27.35,15.464c-8.214,4.645-15.478,2.813-18.1-4.567L951.162,218.206l-.334-.939-2.429-6.827c-5.993-16.846-31.241-1.892-36.764,21.775L877.179,379.875c-2.519,10.792-10.11,21.509-18.659,26.344l-7.953,4.5c-7.728,4.371-14.665,3.028-17.635-3.414L822.18,383.979c-6.665-14.458-29.428-1.082-35.8,21.036h0c-2.939,10.2-10.163,19.926-18.165,24.45l-6.947,3.929c-8.425,4.763-15.821,2.706-18.279-5.086l-9.71-30.784c-5.479-17.376-30.8-3.176-36.786,20.636l-34.384,136.67c-2.7,10.742-10.327,21.237-18.8,25.882l25.437-14.748Z" transform="translate(-613.982 -186.158)" fill="#42b6e8" opacity="0.5"/>
            <path id="Path_5326" data-name="Path 5326" d="M1046.333,347.782l-27.35,15.464c-8.214,4.645-15.478,2.813-18.1-4.567l-52.48-147.5c-5.993-16.846-31.241-1.892-36.764,21.775L877.179,380.616c-2.519,10.792-10.11,21.509-18.659,26.344l-7.953,4.5c-7.728,4.371-14.665,3.028-17.635-3.414L822.18,384.72c-6.665-14.458-29.428-1.082-35.8,21.036h0c-2.939,10.2-10.163,19.926-18.165,24.45l-6.947,3.929c-8.425,4.763-15.821,2.706-18.279-5.086l-9.71-30.785c-5.479-17.376-30.8-3.176-36.786,20.636L662.107,555.57c-2.7,10.742-10.327,21.237-18.8,25.882L668.744,566.7Z" transform="translate(-642.229 -203.982)" opacity="0.5" fill="url(#linear-gradient-2)"/>
          </g>
          <g id="Group_82" data-name="Group 82" transform="translate(73.109 166.318)">
            <path id="Path_251-4" data-name="Path 251" d="M697.7,304.813a9.511,9.511,0,1,0,9.6-9.425A9.511,9.511,0,0,0,697.7,304.813Z" transform="translate(-697.701 -295.388)" fill="#00d5ff" opacity="0.4"/>
            <path id="Path_252-4" data-name="Path 252" d="M700.391,302.168a4.128,4.128,0,1,0,4.164-4.09A4.128,4.128,0,0,0,700.391,302.168Z" transform="translate(-695.008 -292.695)" fill="#00d5ff"/>
          </g>
        </g>
        <g id="Group_830" data-name="Group 830" transform="translate(390.878 310.989)">
          <path id="Path_5509" data-name="Path 5509" d="M564.436,157.077,491.89,115.192c-4.423-2.553-3.869-7.014,1.238-9.961h0c5.107-2.948,12.832-3.269,17.254-.716L582.929,146.4c4.423,2.553,3.867,7.014-1.239,9.961h0C576.583,159.311,568.859,159.63,564.436,157.077Z" transform="translate(-384.208 -102.449)" fill="#0090ff" opacity="0.53"/>
          <path id="Path_5510" data-name="Path 5510" d="M535.256,171.43l-42.772-24.693c-4.421-2.553-3.867-7.014,1.239-9.961h0c5.107-2.949,12.831-3.269,17.254-.716l42.772,24.693c4.421,2.553,3.867,7.014-1.239,9.961h0C547.4,173.664,539.679,173.983,535.256,171.43Z" transform="translate(-393.274 -82.079)" fill="#0090ff" opacity="0.4"/>
          <path id="Path_5512" data-name="Path 5512" d="M564.436,182.751,491.89,140.867c-4.423-2.553-3.869-7.014,1.238-9.963h0c5.107-2.947,12.832-3.267,17.254-.714l72.547,41.885c4.423,2.553,3.867,7.014-1.239,9.961h0C576.583,184.983,568.859,185.3,564.436,182.751Z" transform="translate(-394.554 -115.297)" fill="#24126a" opacity="0.53"/>
          <path id="Path_5513" data-name="Path 5513" d="M505.034,190.745,420.5,141.939c-4.423-2.553-3.869-7.012,1.238-9.961h0c5.107-2.947,12.832-3.267,17.254-.714l84.533,48.8c4.423,2.553,3.869,7.014-1.238,9.961h0C517.181,192.979,509.456,193.3,505.034,190.745Z" transform="translate(-417.163 -61.229)" fill="#24126a" opacity="0.4"/>
          <path id="Path_5517" data-name="Path 5517" d="M512.679,181.985a15.624,15.624,0,0,1-7.669-1.761l-84.531-48.806c-2.04-1.177-3.162-2.82-3.162-4.629,0-2.161,1.6-4.325,4.4-5.941,5.2-3,13.093-3.32,17.605-.716l84.533,48.8c2.04,1.177,3.162,2.823,3.162,4.634,0,2.161-1.6,4.324-4.4,5.938A20.424,20.424,0,0,1,512.679,181.985Zm-81.024-62.922a19.683,19.683,0,0,0-9.585,2.4c-2.573,1.484-4.048,3.429-4.048,5.33,0,1.547,1,2.974,2.809,4.02l84.533,48.8c4.316,2.493,11.9,2.175,16.9-.714,2.573-1.484,4.048-3.429,4.048-5.329,0-1.548-1-2.978-2.809-4.024l-84.533-48.8A14.916,14.916,0,0,0,431.655,119.063Z" transform="translate(-417.317 -63.415)" fill="#00d5ff"/>
          <path id="Path_5518" data-name="Path 5518" d="M572.081,159.294a15.616,15.616,0,0,1-7.667-1.761l-72.546-41.885c-2.038-1.177-3.162-2.821-3.162-4.629,0-2.161,1.6-4.327,4.4-5.943,5.2-3,13.093-3.32,17.605-.714l72.547,41.883c2.038,1.177,3.162,2.823,3.162,4.634,0,2.161-1.605,4.324-4.4,5.938A20.426,20.426,0,0,1,572.081,159.294Zm-69.037-56a19.683,19.683,0,0,0-9.585,2.4c-2.575,1.486-4.05,3.429-4.048,5.332,0,1.547,1,2.972,2.809,4.018l72.546,41.885c4.318,2.493,11.9,2.175,16.9-.714,2.573-1.484,4.048-3.429,4.048-5.329,0-1.548-1-2.978-2.809-4.024l-72.548-41.885A14.931,14.931,0,0,0,503.044,103.291Z" transform="translate(-384.362 -102.599)" fill="#72e3ff"/>
          <path id="Path_5519" data-name="Path 5519" d="M542.9,173.647a15.64,15.64,0,0,1-7.667-1.761l-42.772-24.693c-2.038-1.177-3.161-2.823-3.161-4.633,0-2.161,1.6-4.325,4.4-5.939,5.2-3,13.1-3.32,17.605-.717l42.773,24.7c2.038,1.177,3.16,2.821,3.16,4.629,0,2.161-1.6,4.327-4.4,5.941A20.417,20.417,0,0,1,542.9,173.647Zm-7.316-2.372c4.322,2.5,11.9,2.173,16.9-.716,2.573-1.484,4.046-3.429,4.046-5.33,0-1.546-1-2.974-2.809-4.02l-42.771-24.7c-4.318-2.489-11.9-2.172-16.9.717-2.571,1.483-4.047,3.427-4.047,5.329,0,1.548,1,2.976,2.809,4.022Z" transform="translate(-393.427 -82.229)" fill="#72e3ff"/>
          <path id="Path_5520" data-name="Path 5520" d="M535.256,189.375l-42.772-24.693c-4.421-2.553-3.867-7.014,1.239-9.963h0c5.107-2.947,12.831-3.267,17.254-.714L553.749,178.7c4.421,2.553,3.867,7.014-1.239,9.961h0C547.4,191.609,539.679,191.928,535.256,189.375Z" transform="translate(-393.274 -85.36)" fill="#24126a" opacity="0.4"/>
          <g id="Group_831" data-name="Group 831" transform="translate(47.801 18.892)">
            <path id="Path_5511" data-name="Path 5511" d="M487.72,199.046l-18.157-10.483c-4.423-2.553-3.869-7.014,1.238-9.961h0c5.107-2.949,12.832-3.269,17.254-.716l18.159,10.483c4.421,2.553,3.867,7.014-1.239,9.961h0C499.867,201.28,492.143,201.6,487.72,199.046Z" transform="translate(-466.224 -175.82)" fill="#0090ff" opacity="0.4"/>
            <path id="Path_5514" data-name="Path 5514" d="M487.72,205.082,469.562,194.6c-4.423-2.553-3.869-7.014,1.238-9.963h0c5.107-2.948,12.832-3.267,17.254-.714l18.159,10.483c4.421,2.553,3.867,7.014-1.239,9.961h0C499.867,207.314,492.143,207.635,487.72,205.082Z" transform="translate(-466.224 -171.138)" fill="#24126a" opacity="0.53"/>
            <path id="Path_5521" data-name="Path 5521" d="M495.365,201.264A15.631,15.631,0,0,1,487.7,199.5L469.54,189.018c-2.04-1.177-3.162-2.823-3.162-4.633,0-2.161,1.6-4.325,4.4-5.939,5.2-3,13.093-3.32,17.605-.716l18.159,10.483c2.038,1.177,3.162,2.823,3.162,4.633,0,2.161-1.605,4.325-4.4,5.939A20.438,20.438,0,0,1,495.365,201.264Zm-7.315-2.372c4.318,2.489,11.9,2.17,16.9-.717,2.573-1.484,4.048-3.427,4.048-5.329,0-1.548-1-2.976-2.809-4.022l-18.159-10.485c-4.315-2.488-11.9-2.17-16.9.717-2.573,1.484-4.048,3.427-4.048,5.329,0,1.548,1,2.976,2.809,4.022Z" transform="translate(-466.378 -175.969)" fill="#72e3ff"/>
          </g>
        </g>
      </g>
    </g>
  </g>
</svg>
